<svg width="35" height="18" viewBox="0 0 35 18" fill="none" xmlns="http://www.w3.org/2000/svg">
<path d="M10.0916 -0.000196457H12.5876V16.7998H10.0916V9.0478H2.49557V16.7998H-0.00042963V-0.000196457H2.49557V6.5518H10.0916V-0.000196457ZM22.1163 17.1118C20.7723 17.1118 19.6003 16.7838 18.6003 16.1278C17.6083 15.4718 16.8363 14.5918 16.2843 13.4878C15.7403 12.3758 15.4683 11.1438 15.4683 9.7918V-0.000196457H17.9643V9.7918C17.9643 10.6718 18.1243 11.4798 18.4443 12.2158C18.7723 12.9438 19.2443 13.5278 19.8603 13.9678C20.4843 14.3998 21.2363 14.6158 22.1163 14.6158C23.0203 14.6158 23.7803 14.3998 24.3963 13.9678C25.0123 13.5278 25.4763 12.9438 25.7883 12.2158C26.1083 11.4798 26.2683 10.6718 26.2683 9.7918V-0.000196457H28.7643V9.7918C28.7643 10.8078 28.6083 11.7598 28.2963 12.6478C27.9843 13.5278 27.5363 14.3038 26.9523 14.9758C26.3683 15.6478 25.6683 16.1718 24.8523 16.5478C24.0363 16.9238 23.1243 17.1118 22.1163 17.1118ZM31.7893 16.7998V-0.000196457H34.2853V16.7998H31.7893Z" fill="url(#paint0_linear_1729_4457)"/>
<defs>
<linearGradient id="paint0_linear_1729_4457" x1="-1.44043" y1="8.2998" x2="36.5596" y2="8.2998" gradientUnits="userSpaceOnUse">
<stop stop-color="#7ABF2C"/>
<stop offset="0.196503" stop-color="#6EC6F8"/>
<stop offset="0.39941" stop-color="#A581FF"/>
<stop offset="0.599499" stop-color="#DF9CFF"/>
<stop offset="0.802406" stop-color="#FF93AD"/>
<stop offset="1" stop-color="#FF9241"/>
</linearGradient>
</defs>
</svg>
